<?xml version="1.0" encoding="utf-8" ?><svg xmlns="http://www.w3.org/2000/svg" xmlns:xlink="http://www.w3.org/1999/xlink" width="1416" height="1250" viewBox="0 0 1416 1250"><path d="M522.658 247.133C530.027 247.359 537.219 247.908 544.455 249.388C577.18 256.081 604.532 277.093 622.683 304.753C652.705 350.501 643.051 406.118 611.902 448.46C595.891 470.225 567.186 496.557 561.888 523.651C560.686 529.793 560.233 538.291 564.054 543.579C565.54 545.634 567.585 547.255 570.179 547.482C585.758 548.848 612.222 515.729 624.552 506.353C640.922 493.905 659.979 486.9 679.968 482.867C768.76 464.953 782.424 532.755 852.505 541.985L852.589 498.365C852.598 490.124 853.038 481.578 852.197 473.376C851.107 462.738 847.522 452.339 843.955 442.305C833.484 412.856 822.574 392.587 805.063 366.822C793.388 349.643 779.271 331.402 772.403 311.604C783.138 310.989 794.078 311.396 804.839 311.409L860.837 311.407C907.269 311.367 953.868 310.526 1000.29 311.557L1004.23 319.041C968.389 370.107 933.982 409.387 929.445 474.544C927.946 496.069 929.193 520.041 929.227 541.825C986.853 536.898 1009.83 479.936 1081.45 480.653C1111.85 480.733 1140.91 493.186 1161.93 515.144C1185.3 539.751 1197.99 572.606 1197.22 606.536C1196.36 640.154 1182.26 672.072 1158 695.361C1117.3 733.77 1051.91 736.484 1005.21 707.564C1000.11 704.44 995.308 700.871 990.846 696.899C979.806 687.055 957.396 660.642 942.255 660.786C939.6 660.812 936.719 661.544 934.948 663.66C920.959 680.38 973.391 747.29 983.31 761.433C989.152 769.764 995.113 778.263 999.634 787.401C1006.87 802.028 1010.53 819.35 1011.27 835.582C1012.84 866.766 1001.82 897.273 980.688 920.26C960.132 942.675 930.312 958.207 899.692 959.662C897 959.885 894.297 959.978 891.596 959.94C860.122 959.78 831.828 947.129 809.821 924.699C759.997 873.916 767.701 807.627 804.271 752.281C820.37 727.917 850.009 705.926 849.959 674.48C849.952 669.867 849.619 663.586 845.989 660.286C832.214 647.761 794.771 695.508 783.239 703.402C767.259 714.315 749.164 721.749 730.128 725.224C684.831 733.246 655.864 718.394 620.645 692.385C608.864 683.684 596.46 674.578 582.095 670.798C574.431 668.781 567.315 668.911 559.464 669.471C558.106 731.252 561.826 780.79 597.001 833.431C610.954 854.312 626.535 874.188 638.239 896.488C560.303 897.296 482.234 896.791 404.291 896.464C410.569 874.632 423.976 856.741 436.926 838.512C455.863 811.857 463.559 794.986 473.283 763.528C476.201 754.084 479.495 744.182 480.472 734.314C481.34 725.535 480.979 716.488 480.948 707.674L480.867 666.096C421.904 682.855 388.121 732.785 321.907 727.157C291.723 724.592 263.898 711.63 244.415 688.156C222.813 662.128 215.25 626.519 218.6 593.383C222.046 559.301 237.719 525.307 264.567 503.435C292.45 480.719 328.37 475.906 362.863 482.836C375.958 485.466 388.805 489.666 400.132 496.866C428.493 514.893 440.034 543.307 477.323 547.127C481.399 502.574 444.288 474.818 422.817 440.791C409.892 420.306 401.833 395.842 400.989 371.612C399.682 339.979 411.276 309.171 433.112 286.246C457.007 260.747 488.086 248.206 522.658 247.133Z"/><path fill="#FEFEFE" d="M840.996 777.921L862.119 777.948C870.893 787.054 878.897 797.349 887.131 806.974L938.228 866.513C938.274 852.149 940.179 805.452 936.734 794.473C934.972 788.855 931.077 783.298 928.466 777.966C938.527 777.819 948.605 777.958 958.668 777.977C955.77 784.662 952.625 791.295 951.383 798.529C949.665 808.545 950.586 819.719 950.592 829.859L950.668 884.075C950.686 892.035 951.445 900.753 950.331 908.608C939.75 897.402 929.998 885.128 919.982 873.402L863.862 807.793C863.671 820.34 863.781 832.91 863.755 845.459C863.735 855.317 863.248 865.441 864.518 875.228C865.597 883.542 869.847 890.952 870.937 899.47L843.435 899.456C846.309 892.591 849.353 885.796 850.595 878.406C852.336 868.045 851.462 856.75 851.432 846.241L851.289 793.933C848.272 791.265 843.842 789.201 841.546 785.909C839.627 783.158 840.364 781.014 840.996 777.921Z"/><path fill="#FEFEFE" d="M463.994 308.271L489.378 308.252C496.368 315.594 502.783 323.711 509.378 331.42C527.94 353.115 546.054 375.523 565.379 396.528C565.765 384.335 565.489 372.035 565.523 359.831C565.553 349.265 566.7 337.152 564.503 326.827C563.186 320.638 558.951 315.612 557.474 309.323L557.255 308.353C566.714 307.925 576.297 308.245 585.77 308.264C582.968 314.822 579.537 321.602 578.342 328.676C575.837 343.508 580.163 433.98 577.062 438.432C564.81 424.868 553.166 410.643 541.287 396.746C524.425 377.149 507.663 357.466 491 337.699L490.923 377.375C490.906 386.543 490.427 396.043 491.663 405.137C492.804 413.536 496.878 421.102 498.225 429.595L470.679 429.56C473.44 422.969 476.381 416.361 477.665 409.288C479.534 398.988 478.603 387.466 478.587 377.011L478.56 324.265C472.335 319.191 467.894 315.517 463.994 308.271Z"/><path fill="#FEFEFE" d="M1087.46 541.582C1105.45 539.557 1120.9 544.695 1134.97 555.724L1143.72 603.042C1140.16 598.414 1136.46 593.776 1133.38 588.816C1125.53 576.187 1121.12 565.273 1106.89 558.357C1097 553.505 1085.57 552.86 1075.21 556.569C1065.4 559.941 1057.41 567.183 1053.08 576.608C1046.84 590.061 1047.16 608.045 1052.22 621.812C1056.34 633.029 1064.48 642.677 1075.46 647.641C1087.15 652.923 1098.69 651.705 1110.43 647.384C1124.81 640.653 1132.75 629.097 1138.92 614.892L1148.65 616.043C1145.83 624.696 1142.5 633.079 1137.28 640.596C1128.03 653.919 1114.54 662.475 1098.57 665.259C1083.3 668.077 1067.55 664.592 1054.89 655.598C1042.22 646.438 1034.37 632.557 1032.05 617.186C1029.38 599.516 1032.2 580.467 1043.18 565.991C1054.08 551.634 1069.92 544.1 1087.46 541.582Z"/><path fill="#FEFEFE" d="M276.755 553.587C282.438 553.521 297.217 552.103 301.883 554.175C306.02 556.011 305.775 566.231 307.207 570.295C310.535 579.745 315.19 589.057 319.198 598.251C325.996 614.057 332.93 629.803 340 645.489C345.335 633.627 369.421 580.146 368.995 571.011C368.735 565.419 363.542 559.913 361.618 554.563L361.283 553.615C368.25 553.673 385.494 551.926 390.864 553.595C392.748 554.18 393.248 554.817 394.19 556.483C394.24 562.261 390.271 565.819 386.74 569.923C375.449 586.642 346.017 671.936 338.107 677.094C335.086 676.793 333.521 674.52 331.978 672.073C327.796 665.438 325.02 657.25 321.908 650.064L299.727 598.808C295.347 588.718 291.226 577.206 285.208 568.017C283.511 565.427 281.206 563.465 278.888 561.451L276.755 553.587Z"/><path fill="#FEFEFE" d="M717.707 645.527C721.934 637.308 746.889 579.238 746.905 573.215C746.922 567.223 741.788 562.754 741.154 557.143C740.984 555.642 741.234 554.972 742.224 553.899C747.285 553.617 766.691 551.917 770.216 554.438C771.404 555.287 771.865 555.931 772.021 557.369C772.545 562.189 766.108 568.343 763.152 571.799C757.45 579.49 753.91 591.441 750.189 600.29C740.573 623.164 731.458 646.369 721.472 669.074C720.015 672.387 718.499 675.847 714.972 677.2C712.344 676.232 710.745 673.811 709.341 671.502C704.434 663.432 701.034 653.345 697.279 644.656L674.681 592.429C671.048 584.117 667.643 574.458 662.329 567.12C660.832 565.053 658.639 563.335 656.7 561.688L654.486 553.621L682.237 553.597C682.573 557.753 682.816 561.993 683.868 566.04C686.967 577.96 692.791 589.604 697.806 600.844L717.707 645.527Z"/><path fill="#FEFEFE" d="M885.56 601.07C893.36 599.543 900.936 604.574 902.555 612.355C904.173 620.136 899.231 627.771 891.469 629.481C886.367 630.605 881.054 628.899 877.56 625.014C874.065 621.13 872.929 615.667 874.585 610.712C876.24 605.756 880.432 602.074 885.56 601.07Z"/><path fill="#FEFEFE" d="M515.899 601.054C523.708 599.563 531.264 604.634 532.842 612.427C534.419 620.219 529.432 627.83 521.657 629.494C516.55 630.587 511.25 628.851 507.779 624.95C504.308 621.048 503.201 615.583 504.881 610.638C506.561 605.694 510.769 602.033 515.899 601.054Z"/></svg>