<?xml version="1.0" encoding="utf-8" ?><svg xmlns="http://www.w3.org/2000/svg" xmlns:xlink="http://www.w3.org/1999/xlink" width="2349" height="2299" viewBox="0 0 2349 2299"><clipPath id="cl_3"><rect y="6.1035156e-05" width="2349" height="2299"/></clipPath><g clip-path="url(#cl_3)"><path fill="#F7F7F6" transform="translate(-865 -857)" d="M1722.14 1224.64C1754.37 1224.06 1788 1224.53 1820.34 1224.51L1820.44 2782.66L1721.42 2782.29C1722.53 2673.32 1723.01 2564.34 1722.86 2455.36L1723.85 1874.5C1723.92 1861.62 1724.74 1789.74 1722.86 1782.77C1708.86 1731 1678.16 1601.67 1657.45 1557.16C1655.53 1596.86 1657.36 1650.76 1657.53 1691.54L1657.63 1938.91C1656.29 2220.04 1656.39 2501.18 1657.92 2782.31L1560.33 2781.78L1561.1 1224.58C1591.93 1224.03 1624.09 1224.53 1655.04 1224.58C1661.79 1252.41 1709.43 1440.85 1718.53 1452.92C1724.86 1446.24 1722.01 1390.69 1722.02 1377.45L1722.14 1224.64Z"/><path fill="#F7F7F6" transform="translate(-865 -857)" d="M2224.31 1224.83C2253.13 1223.97 2284.81 1224.49 2313.86 1224.35C2330.88 1295.19 2354.26 1366.21 2373.75 1436.52C2377 1448.23 2381.26 1460.16 2385.77 1471.45C2389.93 1398.16 2387.09 1300.42 2387.03 1224.69L2483.53 1225L2483.83 2782.4C2453.21 2783.27 2419.27 2782.4 2388.41 2782.23L2389.2 2077.34L2389.53 1883.37C2389.57 1867.17 2390.68 1796.55 2388.29 1784.37C2378.63 1735.25 2358.34 1672.44 2343.78 1623.31C2336.49 1596.79 2329.69 1570.1 2320.18 1544.32C2319.55 1643.32 2319.55 1742.33 2320.2 1841.33L2321.95 2455.05L2322.31 2676.23C2322.33 2696.31 2321.15 2766.03 2324.55 2782.25C2294.95 2783.84 2254.43 2782.44 2224.04 2782.14L2224.31 1224.83Z"/><path fill="#F7F7F6" transform="translate(-865 -857)" d="M2056.17 1224.88C2089.02 1224.48 2121.87 1224.43 2154.72 1224.72C2153.69 1308.14 2153.37 1391.57 2153.75 1475L2153.66 2065.48L2154.2 2260.81C2154.32 2303 2155.89 2351.83 2151.19 2393.74C2148 2422.19 2138.79 2453.82 2132.8 2482.08C2111.62 2581.94 2087.24 2682.39 2071.28 2783.19L1974.11 2782.82C1959.1 2697.98 1941.81 2613.55 1922.25 2529.64C1912.34 2486.91 1897.21 2432.92 1890.25 2390.66C1887.99 2376.89 1889.12 2314.69 1889.13 2298.73L1889.05 2132.82L1889.76 1515.55C1889.76 1484.68 1887.4 1237.13 1892.04 1224.98C1923.23 1224.1 1957.15 1224.69 1988.56 1224.63L1988.25 1924.87L1988.13 2220.23C1988.05 2291.2 1983.34 2360 1998.71 2429.42C2006.8 2465.98 2013.44 2503.79 2020.92 2540.59C2030.44 2509.02 2051.74 2400.81 2055.96 2367.99C2058.81 2345.8 2056.88 2247.13 2056.85 2218.15L2056.93 1920.69L2056.17 1224.88Z"/><path fill="#F7F7F6" transform="translate(-865 -857)" d="M2661.68 1221.05C2670.79 1220.63 2679.91 1220.3 2689.03 1220.07C2728.29 1219.25 2768.41 1228.22 2797.02 1256.98C2809.5 1269.3 2818.11 1284.99 2821.81 1302.12C2825 1316.88 2823.42 1355.78 2823.44 1373C2823.84 1420.22 2823.94 1467.44 2823.74 1514.66L2727.93 1514.93C2727.6 1476.45 2727.54 1437.96 2727.76 1399.48C2727.81 1377.98 2731 1330.93 2720.49 1313.44C2710.74 1307.12 2673.23 1309.86 2659.86 1310.16L2659.8 2096.57C2659.26 2293.84 2659.94 2491.11 2661.86 2688.38C2676.48 2689.23 2710.6 2693.84 2721.58 2683.17C2726.03 2678.85 2725.93 2672.73 2725.98 2666.58C2726.26 2633.5 2726.17 2600.19 2726.17 2567.13L2726.03 2371.08L2724.76 1775L2724.51 1696.43L2823.72 1696.3L2823.95 2366.14L2824.01 2577.78C2824.03 2612.72 2824.83 2648.54 2823.64 2683.25C2822.08 2728.6 2779.95 2771.93 2736.35 2780.54C2695.76 2788.56 2644.93 2787.05 2608.56 2764.56C2588.94 2752.42 2568.62 2728.32 2562.79 2704.25C2559.02 2656.35 2560.55 2606.52 2560.61 2558.33L2560.69 2248.17L2560.01 1629.21L2559.78 1429.14C2559.75 1391.82 2559.37 1354.52 2560.42 1317.23C2561.89 1265.26 2614.43 1229.1 2661.68 1221.05Z"/><path fill="#F7F7F6" transform="translate(-865 -857)" d="M1235.97 1224.52L1333.52 1224.39C1331.09 1441.07 1333.16 1661.56 1332.9 1878.65L1332.44 2219.96C1332.37 2271.42 1330.97 2344.79 1333.74 2394.34C1334.86 2414.54 1356.51 2518.45 1362.32 2539.54C1373.57 2499.32 1390.8 2418.97 1396.81 2378.65C1399.67 2359.42 1398.32 2276.23 1398.43 2253.33L1399.42 2004.27L1399.8 1224.92L1495.08 1224.93L1495.11 1465.5L1494.1 2075.23L1494.13 2277.86C1494.13 2311.12 1495.24 2357.53 1492.68 2389.88C1490.8 2413.66 1478.16 2462.09 1472.35 2487.18L1443.3 2616.94C1436.66 2646.23 1430.57 2675.63 1425 2705.15C1420.5 2730.18 1416.84 2757.51 1410.82 2781.82C1377.87 2781.7 1344.92 2781.28 1311.97 2780.56C1307.06 2764.76 1300.13 2725.76 1296.59 2708.09L1268.85 2567.74C1263.1 2537.93 1257.05 2508.18 1250.69 2478.5C1246.57 2459.73 1236.06 2418.02 1235.35 2400.33C1233.81 2361.56 1235.3 2317.46 1235.44 2278.21L1235.83 2024.73L1235.97 1224.52Z"/><path fill="#1B1B19" fill-opacity="0.011764706" transform="translate(-865 -857)" d="M2320.18 1544.32C2329.69 1570.1 2336.49 1596.79 2343.78 1623.31L2335.77 1625.72C2324.07 1617.56 2339.33 1621.08 2327.06 1615.02C2325.03 1649.66 2326.56 1694.25 2326.65 1729.91L2326.78 1932.5L2326.95 2579.08C2326.95 2601.38 2328.96 2772.29 2324.55 2782.25C2321.15 2766.03 2322.33 2696.31 2322.31 2676.23L2321.95 2455.05L2320.2 1841.33C2319.55 1742.33 2319.55 1643.32 2320.18 1544.32Z"/><path fill="#C92428" transform="translate(-865 -857)" d="M1838.93 984.624L2651.47 984.508C2789.87 984.465 2936.64 981.907 3074.54 984.531C3074.75 1020.56 3075.92 1061.83 3074.15 1097.42C3074.81 1105.81 3075.09 1135.88 3074.23 1144.65C3074.9 1166.44 3074.99 1188.25 3074.48 1210.05L3063.1 1222.01L3058.49 1220.91L3061.06 1223.41C3056.91 1221.06 3057.15 1218.48 3054.84 1212.8C3050.89 1215.42 3052.03 1215.12 3049.37 1219.95C3045.61 1218.12 3047.03 1219.43 3044.93 1216.24L3045.87 1217.31L3043.71 1219.95C3042.86 1224.88 3042.1 1230.42 3040.85 1235.2C3039.89 1163.14 3040.48 1089.84 3040.38 1017.68C2850.82 1018.3 2654.76 1019.06 2465.43 1016.57L2462.56 1016.99L1578.29 1018.18C1405.35 1018.19 1217.83 1015.04 1045.85 1019.51L1043.59 1021.42C1044.25 1041.66 1044.37 1061.92 1043.96 1082.18C1044.56 1113.34 1045.29 1149.92 1044.15 1180.89C1044.51 1202.92 1044.75 1223.25 1044.01 1245.33L1040.71 1240.75L1040.57 1237.72C1040.02 1227.3 1039.96 1210.63 1032.05 1203.46C1025.8 1203.05 1028.92 1202.54 1022.85 1207.12C1019.15 1217.28 1018.03 1219.88 1010.62 1227.73L1011.52 984.327L1834.66 984.76L1838.93 984.624Z"/><path fill="#C7282F" transform="translate(-865 -857)" d="M1020.19 1111.7C1023.7 1098.74 1018.44 1093.98 1019.96 1081.44C1021.24 1070.81 1032.92 1066.46 1041.49 1071.13L1043.96 1082.18C1044.56 1113.34 1045.29 1149.92 1044.15 1180.89L1041.94 1180.9L1041.11 1185.13C1035.94 1187.34 1036.74 1187.36 1032.79 1191.53C1028.04 1189.34 1024 1187.38 1019.36 1184.98L1019.21 1180L1021.96 1177.74C1025.7 1179.32 1027.38 1179.89 1031.29 1181.01L1031.56 1177.86C1026.83 1172.72 1021.91 1174.9 1018.92 1172.12C1014.05 1167.61 1022.81 1130.68 1019.87 1122.44C1019.31 1120.88 1015.66 1117.65 1014.42 1116.24L1015.29 1113.46L1020.19 1111.7Z"/><path fill="#D02C33" transform="translate(-865 -857)" d="M1039.92 1130.99C1038.26 1133.91 1032.83 1139.99 1030.42 1143.23C1025.06 1144.97 1027.39 1145.33 1022.99 1143.9C1022.84 1136.13 1027.33 1134.46 1026.96 1132.93C1024.14 1121.46 1021.07 1128.17 1022.6 1116.09L1026.33 1115.15C1028.76 1118.93 1028.84 1118.36 1029.27 1122.9C1033.15 1127.37 1035.93 1127.53 1039.92 1130.99Z"/><path fill="#D02C33" transform="translate(-865 -857)" d="M3074.23 1144.65C3070.09 1150.13 3066.63 1151.13 3063.9 1157.6C3066.08 1164.34 3066.87 1165.77 3066.8 1173.06L3064.32 1175.03C3054.64 1170.95 3042.23 1145.15 3044.16 1136.8C3048.18 1119.43 3036.97 1065.21 3053.6 1056.95L3055.56 1058.45L3055.88 1070.06C3065.39 1076.47 3056.82 1067.81 3068 1069.49C3072.21 1078.51 3070.29 1086.72 3074.15 1097.42C3074.81 1105.81 3075.09 1135.88 3074.23 1144.65Z"/><path fill="#CC2C31" transform="translate(-865 -857)" d="M1020.05 1038.51C1008.78 1027.41 1013.17 1000.05 1032.33 995.733L1036.3 1002.47L1042.3 1003.49C1049.77 1008.98 1050.86 1010.71 1059.54 1011.46L1061.37 1011.63C1056.12 1014.1 1050.95 1016.73 1045.85 1019.51L1043.59 1021.42C1039.63 1029.85 1039.4 1030.3 1038.35 1039.44L1033.91 1043.94L1037.89 1048.11C1039.05 1053.23 1039.42 1056.74 1034.25 1058.98C1025.68 1055.48 1023.16 1046.64 1020.05 1038.51Z"/><path fill="#C7282F" transform="translate(-865 -857)" d="M1834.66 984.76L1838.93 984.624C1845.02 994.385 1847.09 989.922 1852.1 998.9L1849.32 1004.52L1845.79 1005.6L1839.92 1000.55C1824.85 1001.54 1816.16 1038.54 1792.87 995.862C1790.01 996.508 1787.16 997.173 1784.3 997.857L1783.99 994.418C1789.88 992.434 1819.53 992.99 1832.45 990.659L1834.66 984.76Z"/><path fill="#C7282F" transform="translate(-865 -857)" d="M2462.56 1016.99C2450.74 1008.82 2444.54 997.27 2437.64 995.387C2450.2 989.424 2469.34 990.464 2476.77 1003.91C2476.67 1011.89 2478.28 1009.31 2474.26 1013.66L2465.43 1016.57L2462.56 1016.99Z"/><path fill="#D02C33" transform="translate(-865 -857)" d="M2586.78 990.065L2588.54 989.172C2591.7 994.312 2589.6 992.5 2594.86 995.002C2602.02 992.342 2609.05 988.892 2616.17 990.772C2619.86 996.156 2618.93 993.18 2618.47 1000.17C2610.86 1007.45 2600.43 1006.63 2593.03 999.468L2590.22 1001.56C2588.38 1008.24 2589.21 1009.66 2584.93 1013.68C2578.84 1007.4 2579.23 1005.61 2572.14 1004.07L2564.9 1009.45C2559.64 1007.19 2560.59 1006.38 2556.97 1000.32L2558.11 996.279C2570.78 990.073 2573.09 1001.75 2586.78 990.065Z"/><path fill="#D02C33" transform="translate(-865 -857)" d="M1449.25 988.596C1464.98 995.486 1465.32 990.478 1475.11 993.802L1479.22 1003.68L1486.67 1004.08L1489.67 1009.17L1487.5 1010.88C1482.32 1011.25 1455.03 1010.84 1451.31 1009.3C1446.72 1003.12 1448.79 997.99 1449.25 988.596Z"/><path fill="#CC2C31" transform="translate(-865 -857)" d="M2229 988.71C2241.08 994.753 2240 988.683 2249.78 999.716L2248.75 1002.59C2242.42 1005.75 2237.67 1004.79 2230.52 1004.51C2229.22 1006.2 2229.9 1004.9 2228.96 1009.35C2224.79 1011.9 2226.93 1011.53 2222.66 1011.04C2220.44 1003.29 2223.1 994.221 2229 988.71Z"/><path fill="#D02C33" transform="translate(-865 -857)" d="M1287.67 994.607L1288.46 995.199C1291.68 1002.43 1291.71 1003.33 1286.91 1008.66L1281.45 1008.71C1276.15 1007.74 1277.88 1008.55 1273.62 1005.1L1273.98 1001C1281.01 994.516 1277.75 996.438 1287.67 994.607Z"/><path fill="#C92428" transform="translate(-865 -857)" d="M3041 2974.26C3055.53 2962.48 3043.39 2929.29 3054.45 2917.96C3071.99 2917.93 3063.67 2926.57 3075.24 2935.51C3075.38 2947.57 3077.57 3007.92 3073.26 3015.21L3069.3 3015.44C3023.65 3018.84 2938.61 3016.09 2891.14 3015.95L2559.65 3015.32L2539.21 3015.33L1011.8 3015.67C1013.48 3005.79 1012.23 2993.48 1013.49 2984.23C1016.46 2962.45 1017.23 2939.89 1019.36 2918.53C1032.25 2919.32 1018.06 2922.44 1034.17 2924.66C1037.19 2934.61 1039.66 2965.1 1042.84 2980.7C1052.41 2987.7 1237.91 2984 1266.11 2984.17C1289.39 2984.13 1316.28 2983.52 1339.28 2984.41L1355.58 2984.3C1377.96 2984.18 1403.54 2983.55 1425.65 2984.32L2529.04 2984.23L2569.56 2984.35L2887.85 2984.11C2920.92 2984.09 3009.18 2981.63 3038.18 2985.05C3040.94 2980.21 3040.25 2980.25 3041 2974.26Z"/><path fill="#D02C33" transform="translate(-865 -857)" d="M3041 2974.26C3055.53 2962.48 3043.39 2929.29 3054.45 2917.96C3071.99 2917.93 3063.67 2926.57 3075.24 2935.51C3075.38 2947.57 3077.57 3007.92 3073.26 3015.21L3069.3 3015.44C3054.37 3010.67 3036.57 3010.35 3030.2 3007.85C3031.07 3003.73 3031.42 3001.47 3031.85 2997.28C3023.96 2990.21 3022.33 2999.25 3012.7 2993.09C3023.96 2989.06 3025.96 2989.01 3037.62 2991.68L3040 2990.14C3039.84 2987.12 3040.28 2988.81 3038.18 2985.05C3040.94 2980.21 3040.25 2980.25 3041 2974.26Z"/><path fill="#C7282F" transform="translate(-865 -857)" d="M1266.11 2984.17C1289.39 2984.13 1316.28 2983.52 1339.28 2984.41C1320.91 2990.11 1311.77 2983.71 1302.54 2987.74C1304.5 2992.09 1304.09 2990.63 1304.88 2995.45C1287.53 3007.8 1271.41 3013.86 1250.19 3006.45C1255.26 3001.71 1264.69 2990.78 1266.11 2984.17Z"/><path fill="#CC2C31" transform="translate(-865 -857)" d="M2392.89 2986.5C2423.53 2983.03 2410.57 2992.03 2428.48 3000.32C2429.29 2998.01 2430.08 2995.69 2430.86 2993.37L2434.39 2994.51C2438.93 3001.26 2439.2 3004.96 2435.81 3012.45L2426.5 3013.02C2413.97 3013.14 2402.32 3013.78 2390.02 3011.3L2391.25 3009.56L2405.69 3008.44C2401.03 3000.93 2398.03 2994.91 2391.09 2989.24L2392.89 2986.5Z"/><path fill="#D02C33" transform="translate(-865 -857)" d="M2169.78 2989.54L2181.85 2989.64C2189.18 2995.47 2177.86 2990.17 2182.94 3008.44C2175 3008.85 2172.24 3010.64 2167.91 3006.83C2169.72 2999.62 2169.84 2998.88 2169.8 2991.33L2169.78 2989.54Z"/><path fill="#D02C33" transform="translate(-865 -857)" d="M1019.96 2985.77C1024.63 2987.89 1033.94 2997.84 1034.87 3002.94L1031.4 3005.44C1021.92 3004.73 1022.49 3006.44 1017.83 3001.3L1019.96 2985.77Z"/><path fill="#CC2C31" transform="translate(-865 -857)" d="M3040.85 1235.2C3042.1 1230.42 3042.86 1224.88 3043.71 1219.95L3045.87 1217.31L3044.93 1216.24C3047.03 1219.43 3045.61 1218.12 3049.37 1219.95C3052.03 1215.12 3050.89 1215.42 3054.84 1212.8C3057.15 1218.48 3056.91 1221.06 3061.06 1223.41L3058.49 1220.91L3063.1 1222.01L3074.48 1210.05L3075.11 2394.3C3068.07 2381.89 3074.85 2369.11 3062.98 2359.87L3061.06 2362.17C3063.91 2365.08 3062.5 2363.46 3065.23 2367.1C3059.02 2376.14 3065 2365.98 3052.43 2370.35C3050.4 2377.94 3048.29 2385.68 3041.73 2390.33C3039.23 2366.7 3041.09 2298.62 3041.11 2271.04L3041.36 2022.24L3040.85 1235.2Z"/><path fill="#C7282F" transform="translate(-865 -857)" d="M1010.62 1227.73C1018.03 1219.88 1019.15 1217.28 1022.85 1207.12C1028.92 1202.54 1025.8 1203.05 1032.05 1203.46C1039.96 1210.63 1040.02 1227.3 1040.57 1237.72L1040.71 1240.75L1044.01 1245.33C1046.79 1284.87 1044.87 1347.01 1044.84 1388.66L1044.52 1663.15L1044.57 1940.07C1044.59 1981.09 1046.5 2045.33 1043.91 2085.36C1038.32 2069.96 1042.82 2003.45 1033.35 1984.93C1023.96 1983.99 1027.95 1991.95 1016.59 1994.04C1011.77 1989.77 1011.9 1986.57 1010.62 1980.18L1010.66 1834.77L1010.75 1815.22C1009.48 1749.38 1010.55 1680.27 1010.56 1614.23L1010.62 1227.73Z"/><path fill="#D02C33" transform="translate(-865 -857)" d="M1010.75 1815.22C1015.85 1795.92 1008.91 1779 1019.24 1761.66C1024.92 1758.68 1029.28 1759.76 1033.46 1765.09C1031.52 1770.27 1030.42 1770.76 1026.65 1774.97L1027.44 1778.47C1032.47 1778.54 1031.95 1778.12 1036.46 1780.52C1036.78 1785.81 1035.83 1786.12 1033.1 1790.9C1035.39 1792 1037.36 1793.08 1039.41 1794.58C1040.17 1806.55 1036.15 1815.36 1030.52 1825.84C1034.15 1835.35 1040.06 1847.65 1039.7 1857.33C1036.07 1864.24 1038.62 1861.55 1031.51 1865.42C1016.67 1864.23 1013.37 1847 1010.66 1834.77L1010.75 1815.22Z"/><path fill="#D02C33" transform="translate(-865 -857)" d="M1018.24 1449.51C1024.76 1453.91 1026.51 1454.57 1031.21 1460.92L1030.44 1464.91C1025.21 1469.31 1025.45 1469.17 1021.77 1474.99C1022 1481.15 1020.93 1478.61 1024.63 1483.06C1032.92 1479.34 1033.96 1479.73 1042.84 1481.8L1041.49 1484.15C1036.14 1484.85 1036.33 1484.5 1032.45 1488.15C1032.58 1491.94 1032.66 1495.39 1032.63 1499.18L1029.86 1500.16C1011.57 1484.66 1009.92 1473.04 1018.24 1449.51Z"/><path fill="#CC2C31" transform="translate(-865 -857)" d="M1032.85 1252.26L1037.01 1254.33C1042.87 1263.14 1043.61 1271.24 1034.92 1278.36C1027.68 1277.6 1031.23 1278.82 1024.83 1272.12L1025.53 1269.98C1020.38 1260.98 1024.22 1272.47 1015.16 1267.34L1016.53 1264.52C1027.7 1262.25 1032.6 1263.82 1032.85 1252.26Z"/><path fill="#C7282F" transform="translate(-865 -857)" d="M1013.82 2318.84C1017.13 2323.15 1018.11 2324.79 1022.21 2328.43C1033.56 2324.03 1033.85 2307.67 1043.9 2299.16C1043.95 2303.56 1044.33 2312.83 1043.61 2316.68C1045.81 2362.62 1044.69 2422.63 1043.88 2469.15C1046.38 2579.65 1044.02 2699.52 1044.19 2810.91L1044.35 2918.87C1044.37 2933.54 1045.04 2967.44 1042.84 2980.7C1039.66 2965.1 1037.19 2934.61 1034.17 2924.66C1018.06 2922.44 1032.25 2919.32 1019.36 2918.53C1017.23 2939.89 1016.46 2962.45 1013.49 2984.23C1012.23 2993.48 1013.48 3005.79 1011.8 3015.67C1008.78 3003.77 1010.17 2881.79 1010.19 2859.26L1010.62 2453.08C1009.45 2408.87 1010.1 2358.72 1010.6 2314.33L1013.82 2318.84Z"/><path fill="#D02C33" transform="translate(-865 -857)" d="M1033.16 2836.08L1033.98 2836.38C1038.79 2842.92 1040.72 2858.02 1035.66 2864.79L1031.31 2863.31C1031.52 2856.96 1031.49 2853.17 1031.15 2846.83L1027.96 2849.17C1026.12 2854.48 1027.19 2852.81 1023.74 2857.07L1020.78 2854.94C1019.26 2848.35 1018.55 2847.32 1019.48 2840.54C1023.35 2836.81 1027.64 2836.93 1033.16 2836.08Z"/><path fill="#C92428" transform="translate(-865 -857)" d="M3041.73 2390.33C3048.29 2385.68 3050.4 2377.94 3052.43 2370.35C3065 2365.98 3059.02 2376.14 3065.23 2367.1C3062.5 2363.46 3063.91 2365.08 3061.06 2362.17L3062.98 2359.87C3074.85 2369.11 3068.07 2381.89 3075.11 2394.3L3075.1 2478.82L3075.24 2935.51C3063.67 2926.57 3071.99 2917.93 3054.45 2917.96C3043.39 2929.29 3055.53 2962.48 3041 2974.26C3038.93 2930.4 3040.89 2868.91 3040.96 2824.11L3041.34 2527.07C3041.37 2482.68 3040.28 2434.38 3041.73 2390.33Z"/><path fill="#D02C33" transform="translate(-865 -857)" d="M3041.73 2390.33C3048.29 2385.68 3050.4 2377.94 3052.43 2370.35C3065 2365.98 3059.02 2376.14 3065.23 2367.1C3062.5 2363.46 3063.91 2365.08 3061.06 2362.17L3062.98 2359.87C3074.85 2369.11 3068.07 2381.89 3075.11 2394.3L3075.1 2478.82L3074.44 2481.32C3069.25 2501.5 3066.65 2532.81 3069.62 2553.22C3066.03 2553.24 3068.08 2553.48 3063.58 2551.88C3061.92 2556.34 3061.75 2557.18 3060.93 2561.89L3058.68 2562.57C3050.05 2553.27 3059.23 2539.56 3041.34 2527.07C3041.37 2482.68 3040.28 2434.38 3041.73 2390.33Z"/><path fill="#D02C33" transform="translate(-865 -857)" d="M3060.77 2767.79C3065.96 2769.35 3066.23 2770.6 3067.38 2774.89C3063.39 2785.94 3060.95 2790.64 3054.6 2800.47C3043.93 2787.89 3048.22 2776.76 3060.77 2767.79Z"/><path fill="#CC2C31" transform="translate(-865 -857)" d="M1010.62 1980.18C1011.9 1986.57 1011.77 1989.77 1016.59 1994.04C1027.95 1991.95 1023.96 1983.99 1033.35 1984.93C1042.82 2003.45 1038.32 2069.96 1043.91 2085.36C1045.96 2126.12 1043.78 2174.67 1044.38 2216.1C1044.61 2232.3 1045.46 2284.91 1043.9 2299.16C1033.85 2307.67 1033.56 2324.03 1022.21 2328.43C1018.11 2324.79 1017.13 2323.15 1013.82 2318.84L1010.6 2314.33L1010.62 1980.18Z"/><path fill="#D02C33" transform="translate(-865 -857)" d="M1024.11 2255.62C1029.98 2260.15 1029.72 2259.73 1033.35 2266.16C1033.24 2274.77 1033.81 2271.58 1028.55 2279.54L1024.48 2276.17C1025.82 2272.5 1024.25 2261.15 1024.11 2255.62Z"/></g></svg>